<svg version="1.1" id="Layer_1" xmlns="http://www.w3.org/2000/svg" xmlns:xlink="http://www.w3.org/1999/xlink" x="0px" y="0px"
	 width="100%" viewBox="0 0 1024 1024" enable-background="new 0 0 1024 1024" xml:space="preserve">
<path fill="#FCFCFC" opacity="1.000000" stroke="none" 
	d="
M549.000000,1025.000000 
	C366.000000,1025.000000 183.500000,1025.000000 1.000000,1025.000000 
	C1.000000,683.666687 1.000000,342.333344 1.000000,1.000000 
	C342.333344,1.000000 683.666687,1.000000 1025.000000,1.000000 
	C1025.000000,342.333344 1025.000000,683.666687 1025.000000,1025.000000 
	C866.500000,1025.000000 708.000000,1025.000000 549.000000,1025.000000 
M473.452148,923.430603 
	C473.452148,923.430603 473.552734,923.340576 473.930176,923.282288 
	C474.181396,923.154541 474.316742,922.950073 474.578156,922.551025 
	C474.578156,922.551025 474.700348,922.311218 474.962036,922.247070 
	C475.127289,922.150513 475.230988,922.008850 475.562958,921.700378 
	C475.562958,921.700378 475.714478,921.424927 476.234375,921.186218 
	C476.847595,920.475159 477.460785,919.764099 478.007294,918.999817 
	C478.007294,918.999817 478.053558,919.071472 478.542694,918.942322 
	C478.843842,918.547852 479.144958,918.153381 479.646149,917.620789 
	C479.646149,917.620789 479.776611,917.415649 480.336334,917.128601 
	C486.965759,910.603455 493.634186,904.117371 500.216003,897.544617 
	C511.605804,886.170654 522.941833,874.742981 534.149963,863.143433 
	C534.149963,863.143433 534.340332,863.298950 534.955200,863.055542 
	C539.847717,858.019409 544.740234,852.983276 550.145386,847.466064 
	C557.113037,839.002930 560.031921,829.203552 560.016357,818.338806 
	C559.975037,789.370972 560.053162,760.403076 560.032043,731.435181 
	C560.013977,706.633301 559.924316,681.831360 560.068237,656.107971 
	C560.066223,587.205078 560.069519,518.302246 560.053894,449.399353 
	C560.052368,442.584534 559.935425,435.769714 560.014526,428.287506 
	C559.989380,427.833435 559.964233,427.379364 560.619446,427.109863 
	C561.081177,427.053833 561.542908,426.997772 562.932983,427.076691 
	C564.432800,427.071869 565.932617,427.062805 567.432434,427.062927 
	C653.427612,427.069336 739.422791,427.057892 825.417969,427.106445 
	C836.557983,427.112732 846.666931,424.085571 854.661682,416.295532 
	C878.766174,392.808197 902.689697,369.133057 926.500427,345.347687 
	C933.676758,338.179077 937.695679,329.308411 938.152283,318.055695 
	C938.205017,316.726990 938.303101,315.398346 938.303894,314.069611 
	C938.337769,258.039276 938.379761,202.008957 938.364502,145.978638 
	C938.362854,140.003494 938.019714,134.028458 937.948669,127.266960 
	C933.970276,107.712975 919.040710,93.532417 900.039062,91.945610 
	C851.021240,91.883591 802.003479,91.813560 752.985657,91.775833 
	C749.338257,91.773026 745.690796,92.001854 741.226685,92.001442 
	C729.375183,92.973953 720.422424,99.307762 712.418701,107.476021 
	C692.599487,127.702492 672.738098,147.887650 652.905579,168.101044 
	C636.931824,184.381592 620.975403,200.679153 604.473877,217.371414 
	C591.026062,230.931152 577.578308,244.490891 563.426331,257.966217 
	C562.065308,257.641907 560.704285,257.317596 559.163025,256.171570 
	C559.179016,254.771988 559.195068,253.372406 559.479126,251.774673 
	C559.640442,251.427673 559.528015,251.175125 558.931946,250.252899 
	C554.081909,226.912857 537.072815,213.030304 513.337524,213.020462 
	C459.699982,212.998230 406.062408,212.964859 352.424866,212.952408 
	C349.266083,212.951675 346.107208,213.096069 342.035645,212.977615 
	C271.553680,212.991653 201.071594,212.933975 130.589844,213.061478 
	C108.136452,213.102112 89.299751,231.993195 89.128853,254.650131 
	C88.902634,284.640900 88.928635,314.635468 89.129852,344.626526 
	C89.205414,355.887878 93.311981,365.766449 101.524780,373.713135 
	C116.011124,387.730103 130.469940,401.776093 145.034592,415.711334 
	C153.104736,423.432739 162.864838,427.095978 174.033447,427.084778 
	C230.352341,427.028259 286.671234,426.986603 343.079590,427.080872 
	C343.079590,427.080872 343.231110,427.010529 343.349030,427.936951 
	C343.386963,452.242615 343.424896,476.548248 343.203003,501.635651 
	C343.315918,502.443512 343.428864,503.251404 343.372223,504.972961 
	C343.369812,533.532898 343.348755,562.092834 343.374298,590.652771 
	C343.384247,601.769714 343.499329,612.886597 343.317810,624.706787 
	C343.426880,625.179810 343.535950,625.652771 343.440308,627.023560 
	C343.441437,714.075439 343.435638,801.127319 343.470154,888.179199 
	C343.471466,891.494141 343.862000,894.808899 343.870911,898.239990 
	C343.782593,898.514893 343.873260,898.679749 344.061005,898.842712 
	C344.061005,898.842712 344.170197,898.923096 344.053711,899.716797 
	C345.881104,904.260071 347.708466,908.803406 349.613464,913.373779 
	C349.613464,913.373779 349.621948,913.455505 349.786621,914.077026 
	C350.835022,915.413330 351.883453,916.749634 353.000153,918.013245 
	C353.000153,918.013245 352.913391,918.062256 353.123962,918.698181 
	C357.074158,921.820984 361.024323,924.943787 365.135529,928.295105 
	C365.135529,928.295105 365.410522,928.345276 365.873230,928.887451 
	C372.241119,930.523743 378.573273,933.383545 384.983429,933.570801 
	C405.566742,934.171570 426.195343,934.248291 446.770569,933.517029 
	C453.591370,933.274658 460.303436,929.973511 467.000000,928.000000 
	C467.000000,928.000000 467.064514,928.070374 467.730927,927.997986 
	C469.266449,926.804626 470.801941,925.611206 472.356323,924.344360 
	C472.356323,924.344360 472.431122,924.331909 472.860779,924.225220 
	C473.138824,924.068115 473.300995,923.831604 473.452148,923.430603 
z"/>
<path fill="#4E4D8F" opacity="1.000000" stroke="none" 
	d="
M937.941467,318.967926 
	C937.695679,329.308411 933.676758,338.179077 926.500427,345.347687 
	C902.689697,369.133057 878.766174,392.808197 854.661682,416.295532 
	C846.666931,424.085571 836.557983,427.112732 825.417969,427.106445 
	C739.422791,427.057892 653.427612,427.069336 567.432434,427.062927 
	C565.932617,427.062805 564.432800,427.071869 562.523315,426.626129 
	C565.717712,409.841461 569.473206,393.539001 572.897644,377.167297 
	C583.511597,326.423920 594.016174,275.657623 604.489014,224.884872 
	C605.018188,222.319550 604.853088,219.611023 605.011292,216.969162 
	C620.975403,200.679153 636.931824,184.381592 652.905579,168.101044 
	C672.738098,147.887650 692.599487,127.702492 712.418701,107.476021 
	C720.422424,99.307762 729.375183,92.973953 741.944946,92.332458 
	C743.644836,92.775002 744.626404,92.983826 745.608093,92.984146 
	C795.976807,93.000587 846.345459,93.006378 896.714111,92.963356 
	C898.127808,92.962143 899.540955,92.419090 900.954346,92.128708 
	C919.040710,93.532417 933.970276,107.712975 937.631348,127.976547 
	C937.209534,129.670364 937.013733,130.654572 937.013550,131.638809 
	C937.001343,192.679382 936.998840,253.719955 937.046387,314.760498 
	C937.047485,316.163208 937.630127,317.565460 937.941467,318.967926 
M855.025208,211.595612 
	C846.694824,188.165558 823.807190,172.607529 799.960693,174.165176 
	C775.863342,175.739227 755.204468,193.111084 750.030579,216.151230 
	C744.436707,241.061203 755.295715,265.936432 777.016174,277.968658 
	C795.707642,288.322937 820.332153,285.976532 837.554688,272.200012 
	C855.292786,258.011108 862.058228,235.151443 855.025208,211.595612 
z"/>
<path fill="#292457" opacity="1.000000" stroke="none" 
	d="
M559.866272,657.029480 
	C559.924316,681.831360 560.013977,706.633301 560.032043,731.435181 
	C560.053162,760.403076 559.975037,789.370972 560.016357,818.338806 
	C560.031921,829.203552 557.113037,839.002930 549.550171,847.727539 
	C545.475769,850.683228 541.735535,853.111145 538.613953,856.170288 
	C536.699402,858.046448 535.732666,860.889893 534.340332,863.298950 
	C534.340332,863.298950 534.149963,863.143433 533.862610,863.199951 
	C532.064697,864.210266 530.329651,864.934448 529.080200,866.155457 
	C521.353577,873.706482 513.779785,881.414062 506.041077,888.952454 
	C504.688324,890.270203 502.480347,890.739197 501.206512,892.103516 
	C496.316711,897.340881 491.577545,902.724243 486.921661,908.172424 
	C484.394714,911.129333 482.149109,914.326721 479.776611,917.415649 
	C479.776611,917.415649 479.646149,917.620789 479.257660,917.622498 
	C478.597290,918.106628 478.325439,918.589050 478.053589,919.071472 
	C478.053558,919.071472 478.007294,918.999817 477.662781,919.034302 
	C476.783661,919.854126 476.249084,920.639526 475.714478,921.424927 
	C475.714478,921.424927 475.562958,921.700378 475.228027,921.662354 
	C474.893097,921.624390 474.573639,921.904541 474.573639,921.904541 
	C474.573639,921.904541 474.700348,922.311218 474.700348,922.311218 
	C474.700348,922.311218 474.578156,922.551025 474.225983,922.554688 
	C473.505249,922.711365 473.398224,922.972107 473.552734,923.340576 
	C473.552734,923.340576 473.452148,923.430603 473.143433,923.454224 
	C472.700195,923.762573 472.565674,924.047241 472.431152,924.331909 
	C472.431122,924.331909 472.356323,924.344360 471.981445,924.314331 
	C470.092560,925.546326 468.578522,926.808350 467.064514,928.070374 
	C467.064514,928.070374 467.000000,928.000000 466.633118,928.010498 
	C455.731598,932.225525 444.702271,932.271545 433.597015,932.136230 
	C419.141327,931.960144 404.681396,932.155701 390.224335,932.050659 
	C386.611206,932.024414 382.971436,931.653809 379.398499,931.093567 
	C374.707550,930.357788 370.070648,929.277405 365.410522,928.345276 
	C365.410522,928.345276 365.135529,928.295105 365.009125,927.845215 
	C362.987366,921.598206 357.661224,920.201050 352.913391,918.062256 
	C352.913391,918.062256 353.000153,918.013245 352.973328,917.651978 
	C352.848114,915.137024 352.885315,912.865723 349.621948,913.455505 
	C349.621948,913.455505 349.613464,913.373779 349.674072,912.956177 
	C348.153503,908.016357 346.572357,903.494263 344.990540,898.505249 
	C344.992157,811.430115 344.987701,724.821960 345.036896,638.213745 
	C345.038086,636.147461 345.638916,634.081482 346.244263,632.202881 
	C355.484802,648.911499 369.172760,657.118103 388.151642,657.066650 
	C445.389465,656.911377 502.628021,657.022339 559.866272,657.029480 
z"/>
<path fill="#292457" opacity="1.000000" stroke="none" 
	d="
M342.990143,426.939758 
	C286.671234,426.986603 230.352341,427.028259 174.033447,427.084778 
	C162.864838,427.095978 153.104736,423.432739 145.034592,415.711334 
	C130.469940,401.776093 116.011124,387.730103 101.524780,373.713135 
	C93.311981,365.766449 89.205414,355.887878 89.129852,344.626526 
	C88.928635,314.635468 88.902634,284.640900 89.128853,254.650131 
	C89.299751,231.993195 108.136452,213.102112 130.589844,213.061478 
	C201.071594,212.933975 271.553680,212.991653 342.487122,213.532440 
	C342.955780,285.038086 342.972961,355.988922 342.990143,426.939758 
z"/>
<path fill="#4E4D8F" opacity="1.000000" stroke="none" 
	d="
M559.967285,656.568726 
	C502.628021,657.022339 445.389465,656.911377 388.151642,657.066650 
	C369.172760,657.118103 355.484802,648.911499 346.208435,631.823975 
	C345.573364,629.511963 345.258362,627.766296 344.968201,625.689209 
	C344.989410,624.915100 344.985779,624.472412 344.988861,623.559326 
	C344.994843,585.175232 345.013580,547.261597 344.931763,509.348145 
	C344.927948,507.584198 344.025635,505.822174 343.541809,504.059265 
	C343.428864,503.251404 343.315918,502.443512 343.486420,501.184845 
	C343.769836,500.734039 344.056427,500.896729 344.093323,501.084351 
	C344.421021,501.281494 344.711761,501.291077 345.033081,501.261108 
	C345.063660,501.221588 345.096100,501.127075 345.483673,501.100769 
	C361.756592,495.771912 377.684357,490.592407 393.517548,485.138336 
	C418.310120,476.597900 443.019989,467.817535 467.800049,459.240356 
	C491.157562,451.155579 514.531006,443.114227 537.961121,435.243378 
	C545.156921,432.826172 552.562500,431.033539 559.872009,428.954895 
	C559.935425,435.769714 560.052368,442.584534 560.053894,449.399353 
	C560.069519,518.302246 560.066223,587.205078 559.967285,656.568726 
z"/>
<path fill="#4F4E8F" opacity="1.000000" stroke="none" 
	d="
M343.034851,427.010315 
	C342.972961,355.988922 342.955780,285.038086 342.943481,213.630096 
	C346.107208,213.096069 349.266083,212.951675 352.424866,212.952408 
	C406.062408,212.964859 459.699982,212.998230 513.337524,213.020462 
	C537.072815,213.030304 554.081909,226.912857 558.991394,250.878464 
	C559.050842,251.504028 559.211060,251.972824 559.211060,251.972824 
	C559.195068,253.372406 559.179016,254.771988 559.171875,257.005737 
	C559.961975,262.356659 558.008667,265.683563 554.820129,268.687225 
	C551.724487,271.603333 548.908997,274.816956 545.713684,277.988312 
	C545.262146,278.372253 545.067383,278.667816 544.605164,279.069550 
	C543.888184,279.780121 543.438660,280.384552 542.994507,280.994080 
	C542.999939,280.999176 542.992004,280.986755 542.744385,281.059875 
	C542.320374,281.417542 542.143982,281.702118 541.984314,281.993988 
	C542.001038,282.001312 541.986206,281.968018 541.743469,282.049957 
	C541.328979,282.418976 541.157166,282.706085 540.739502,283.057434 
	C540.323914,283.401917 540.154236,283.682098 539.735962,284.039734 
	C539.311829,284.405243 539.136353,284.693359 538.980835,284.990723 
	C539.000732,284.999969 538.980591,284.960876 538.735901,285.044861 
	C538.317444,285.414825 538.143677,285.700806 537.985962,285.993835 
	C538.002014,286.000916 537.985840,285.969788 537.742126,286.053284 
	C537.326965,286.422791 537.155518,286.708801 536.744751,287.075073 
	C536.336548,287.435669 536.167603,287.716003 535.757935,288.073181 
	C535.352661,288.431396 535.188110,288.712830 534.754272,289.111633 
	C533.988464,289.815369 533.492065,290.401733 532.746948,291.059296 
	C532.322083,291.415833 532.146057,291.701172 531.985474,291.993896 
	C532.000977,292.001221 531.985840,291.970428 531.740662,292.050415 
	C531.330078,292.419769 531.164673,292.709167 530.705078,293.123047 
	C529.290283,294.504211 528.169800,295.760956 526.743225,297.150116 
	C524.629456,299.199066 522.821655,301.115570 520.705078,303.163361 
	C515.076477,308.788269 509.756683,314.281891 504.162415,319.924500 
	C486.171600,337.878906 468.455231,355.684357 450.452087,373.671234 
	C448.165253,375.922058 446.165192,377.991425 443.866058,380.204742 
	C442.535797,381.512604 441.504578,382.676544 440.206512,383.992737 
	C438.945251,385.189972 437.950867,386.234894 436.758545,387.313416 
	C436.315826,387.510864 436.196930,387.740112 435.912292,388.176208 
	C434.766235,389.272583 433.911774,390.227417 432.765442,391.319122 
	C431.009949,393.041901 429.546326,394.627808 427.791046,396.357422 
	C422.668976,401.445892 417.838593,406.390686 412.716583,411.468872 
	C409.895844,414.328796 407.846161,418.031799 404.729584,419.562042 
	C399.552094,422.104218 393.673767,423.203125 388.128418,425.025055 
	C387.005768,425.393890 386.050964,426.273529 384.736786,427.227722 
	C375.725677,427.624451 366.996735,427.744202 358.267395,427.784698 
	C353.539520,427.806641 348.811066,427.693390 343.824524,427.544739 
	C343.454529,427.302429 343.342834,427.156494 343.231110,427.010529 
	C343.231110,427.010529 343.079590,427.080872 343.034851,427.010315 
z"/>
<path fill="#282357" opacity="1.000000" stroke="none" 
	d="
M344.082886,427.641113 
	C348.811066,427.693390 353.539520,427.806641 358.267395,427.784698 
	C366.996735,427.744202 375.725677,427.624451 385.199341,427.301025 
	C396.629486,427.001556 407.315094,426.938782 418.370453,426.964142 
	C419.493500,426.994568 420.246765,426.936829 421.446991,426.968262 
	C424.929138,427.001373 427.964355,426.945282 431.329163,426.977234 
	C432.105621,427.005035 432.552521,426.944794 433.459778,426.974854 
	C439.613708,427.001526 445.307220,426.937988 451.461548,426.965607 
	C459.392639,427.069946 466.862976,427.105438 474.333252,427.092194 
	C500.888702,427.045044 527.444153,426.981293 554.251892,427.007629 
	C554.672424,427.036072 554.840759,426.980713 555.420105,427.025879 
	C557.238770,427.100342 558.646362,427.074310 560.023926,427.018829 
	C559.993835,426.989349 559.939087,426.925293 559.939087,426.925293 
	C559.964233,427.379364 559.989380,427.833435 559.943237,428.621216 
	C552.562500,431.033539 545.156921,432.826172 537.961121,435.243378 
	C514.531006,443.114227 491.157562,451.155579 467.800049,459.240356 
	C443.019989,467.817535 418.310120,476.597900 393.517548,485.138336 
	C377.684357,490.592407 361.756592,495.771912 345.448975,500.620117 
	C345.018616,477.906708 345.032990,455.647552 344.962708,433.388641 
	C344.956665,431.471893 344.389404,429.556915 344.082886,427.641113 
z"/>
<path fill="#282456" opacity="1.000000" stroke="none" 
	d="
M604.742554,217.170288 
	C604.853088,219.611023 605.018188,222.319550 604.489014,224.884872 
	C594.016174,275.657623 583.511597,326.423920 572.897644,377.167297 
	C569.473206,393.539001 565.717712,409.841461 562.059082,426.558655 
	C561.542908,426.997772 561.081177,427.053833 560.279297,427.017578 
	C559.939087,426.925293 559.993835,426.989349 560.025574,426.583130 
	C559.988220,424.440552 559.919128,422.704132 559.937439,420.508362 
	C559.933044,408.377411 559.841309,396.705872 559.838135,384.570740 
	C559.875122,352.404663 559.823669,320.702148 559.859985,288.538391 
	C559.953491,282.089722 560.212402,276.088409 559.884705,270.119232 
	C559.623962,265.368958 560.524475,261.306335 564.130554,258.050598 
	C577.578308,244.490891 591.026062,230.931152 604.742554,217.170288 
z"/>
<path fill="#FBFBFC" opacity="1.000000" stroke="none" 
	d="
M563.778442,258.008423 
	C560.524475,261.306335 559.623962,265.368958 559.884705,270.119232 
	C560.212402,276.088409 559.953491,282.089722 559.460083,288.560913 
	C558.332764,289.662750 557.049194,290.421936 557.149109,290.878021 
	C558.960144,299.143860 552.263245,307.326752 556.921448,315.578430 
	C556.693298,333.970978 556.424805,352.363159 556.267273,370.756287 
	C556.230652,375.026215 556.460999,379.310150 556.870544,383.558502 
	C556.926331,384.137543 558.746399,384.546539 559.749634,385.034302 
	C559.841309,396.705872 559.933044,408.377411 559.674072,420.191986 
	C559.110901,413.444183 558.898499,406.553375 558.686035,399.662537 
	C558.139221,399.674530 557.592468,399.686523 557.045654,399.698517 
	C557.045654,404.943878 557.300049,410.205719 556.961426,415.429108 
	C556.711243,419.287170 555.687927,423.095123 555.009094,426.925385 
	C554.840759,426.980713 554.672424,427.036072 554.246582,426.643982 
	C550.703308,418.725342 551.445190,411.141235 553.291748,403.503143 
	C554.203247,399.732727 555.071045,395.915527 551.624817,391.721619 
	C551.125427,394.994110 550.757629,397.404144 550.389893,399.814178 
	C549.807312,399.923737 549.224792,400.033264 548.642273,400.142822 
	C548.095398,398.590332 546.943909,396.973206 547.101929,395.496094 
	C547.985352,387.236053 547.330383,378.114777 550.760986,371.005646 
	C554.771423,362.695068 551.993103,355.115509 552.604248,347.262726 
	C552.893860,343.541321 553.203613,339.821442 553.476074,336.098785 
	C553.882019,330.553528 554.659363,324.998627 554.550232,319.462189 
	C554.425476,313.127960 553.729065,306.776276 552.806152,300.502014 
	C552.480835,298.290344 550.753967,296.284821 549.666992,294.185211 
	C548.523071,295.598114 547.386658,297.017212 546.231140,298.420563 
	C545.841492,298.893738 545.403259,299.326904 544.284058,300.541534 
	C542.677917,293.407288 537.156982,296.558105 532.895142,296.273773 
	C532.868652,295.601654 532.842102,294.929535 532.815613,294.257416 
	C535.916748,293.080688 539.017822,291.903961 541.911011,290.806122 
	C542.438416,289.141724 543.305603,287.168243 543.628601,285.109406 
	C543.833740,283.801544 543.230103,282.366791 542.989136,280.988953 
	C543.438660,280.384552 543.888184,279.780121 544.851807,278.966675 
	C545.567444,278.471741 545.768982,278.185852 545.970520,277.899933 
	C548.908997,274.816956 551.724487,271.603333 554.820129,268.687225 
	C558.008667,265.683563 559.961975,262.356659 559.261963,257.416595 
	C560.704285,257.317596 562.065308,257.641907 563.778442,258.008423 
M558.360352,282.589050 
	C557.905090,283.769196 557.449829,284.949341 556.994629,286.129486 
	C557.528625,286.236542 558.062683,286.343567 558.596680,286.450592 
	C558.665894,285.341736 558.735107,284.232910 558.360352,282.589050 
z"/>
<path fill="#1A143E" opacity="1.000000" stroke="none" 
	d="
M344.943329,626.020691 
	C345.258362,627.766296 345.573364,629.511963 345.924225,631.636475 
	C345.638916,634.081482 345.038086,636.147461 345.036896,638.213745 
	C344.987701,724.821960 344.992157,811.430115 344.785889,898.484436 
	C344.581879,898.930542 344.170197,898.923096 344.170197,898.923096 
	C344.170197,898.923096 344.061005,898.842712 344.153992,898.627808 
	C344.246948,898.412842 344.071167,898.123779 344.071167,898.123779 
	C343.862000,894.808899 343.471466,891.494141 343.470154,888.179199 
	C343.435638,801.127319 343.441437,714.075439 343.762329,626.571472 
	C344.084351,626.119385 344.505798,626.000000 344.505798,626.000000 
	C344.505798,626.000000 344.943329,626.020691 344.943329,626.020691 
z"/>
<path fill="#3D3C72" opacity="1.000000" stroke="none" 
	d="
M343.457031,504.516113 
	C344.025635,505.822174 344.927948,507.584198 344.931763,509.348145 
	C345.013580,547.261597 344.994843,585.175232 344.753143,623.552307 
	C344.196075,624.002991 343.881348,623.998901 343.566528,624.003479 
	C343.499329,612.886597 343.384247,601.769714 343.374298,590.652771 
	C343.348755,562.092834 343.369812,533.532898 343.457031,504.516113 
z"/>
<path fill="#494663" opacity="1.000000" stroke="none" 
	d="
M365.641876,928.616333 
	C370.070648,929.277405 374.707550,930.357788 379.398499,931.093567 
	C382.971436,931.653809 386.611206,932.024414 390.224335,932.050659 
	C404.681396,932.155701 419.141327,931.960144 433.597015,932.136230 
	C444.702271,932.271545 455.731598,932.225525 466.665741,928.045898 
	C460.303436,929.973511 453.591370,933.274658 446.770569,933.517029 
	C426.195343,934.248291 405.566742,934.171570 384.983429,933.570801 
	C378.573273,933.383545 372.241119,930.523743 365.641876,928.616333 
z"/>
<path fill="#3D3C72" opacity="1.000000" stroke="none" 
	d="
M938.046875,318.511810 
	C937.630127,317.565460 937.047485,316.163208 937.046387,314.760498 
	C936.998840,253.719955 937.001343,192.679382 937.013550,131.638809 
	C937.013733,130.654572 937.209534,129.670364 937.574524,128.369751 
	C938.019714,134.028458 938.362854,140.003494 938.364502,145.978638 
	C938.379761,202.008957 938.337769,258.039276 938.303894,314.069611 
	C938.303101,315.398346 938.205017,316.726990 938.046875,318.511810 
z"/>
<path fill="#494663" opacity="1.000000" stroke="none" 
	d="
M480.056458,917.272095 
	C482.149109,914.326721 484.394714,911.129333 486.921661,908.172424 
	C491.577545,902.724243 496.316711,897.340881 501.206512,892.103516 
	C502.480347,890.739197 504.688324,890.270203 506.041077,888.952454 
	C513.779785,881.414062 521.353577,873.706482 529.080200,866.155457 
	C530.329651,864.934448 532.064697,864.210266 533.937866,863.297180 
	C522.941833,874.742981 511.605804,886.170654 500.216003,897.544617 
	C493.634186,904.117371 486.965759,910.603455 480.056458,917.272095 
z"/>
<path fill="#454479" opacity="1.000000" stroke="none" 
	d="
M900.496704,92.037155 
	C899.540955,92.419090 898.127808,92.962143 896.714111,92.963356 
	C846.345459,93.006378 795.976807,93.000587 745.608093,92.984146 
	C744.626404,92.983826 743.644836,92.775002 742.353271,92.393234 
	C745.690796,92.001854 749.338257,91.773026 752.985657,91.775833 
	C802.003479,91.813560 851.021240,91.883591 900.496704,92.037155 
z"/>
<path fill="#1A143E" opacity="1.000000" stroke="none" 
	d="
M343.824554,427.544739 
	C344.389404,429.556915 344.956665,431.471893 344.962708,433.388641 
	C345.032990,455.647552 345.018616,477.906708 345.061401,500.646423 
	C345.096100,501.127075 345.063660,501.221588 344.796082,501.161072 
	C344.371124,501.032593 344.213776,500.964661 344.056427,500.896729 
	C344.056427,500.896729 343.769836,500.734039 343.616333,500.793976 
	C343.424896,476.548248 343.386963,452.242615 343.290070,427.473755 
	C343.342834,427.156494 343.454529,427.302429 343.824554,427.544739 
z"/>
<path fill="#494663" opacity="1.000000" stroke="none" 
	d="
M534.647766,863.177246 
	C535.732666,860.889893 536.699402,858.046448 538.613953,856.170288 
	C541.735535,853.111145 545.475769,850.683228 549.293884,847.968079 
	C544.740234,852.983276 539.847717,858.019409 534.647766,863.177246 
z"/>
<path fill="#494663" opacity="1.000000" stroke="none" 
	d="
M353.018677,918.380249 
	C357.661224,920.201050 362.987366,921.598206 364.928589,927.730957 
	C361.024323,924.943787 357.074158,921.820984 353.018677,918.380249 
z"/>
<path fill="#494663" opacity="1.000000" stroke="none" 
	d="
M344.111938,899.319946 
	C344.170197,898.923096 344.581879,898.930542 344.786560,898.951294 
	C346.572357,903.494263 348.153503,908.016357 349.635254,912.942627 
	C347.708466,908.803406 345.881104,904.260071 344.111938,899.319946 
z"/>
<path fill="#494663" opacity="1.000000" stroke="none" 
	d="
M467.397705,928.034180 
	C468.578522,926.808350 470.092560,925.546326 471.971985,924.351074 
	C470.801941,925.611206 469.266449,926.804626 467.397705,928.034180 
z"/>
<path fill="#494663" opacity="1.000000" stroke="none" 
	d="
M349.704285,913.766235 
	C352.885315,912.865723 352.848114,915.137024 352.939209,917.688354 
	C351.883453,916.749634 350.835022,915.413330 349.704285,913.766235 
z"/>
<path fill="#494663" opacity="1.000000" stroke="none" 
	d="
M475.974426,921.305542 
	C476.249084,920.639526 476.783661,919.854126 477.696106,919.060913 
	C477.460785,919.764099 476.847595,920.475159 475.974426,921.305542 
z"/>
<path fill="#494663" opacity="1.000000" stroke="none" 
	d="
M343.442169,624.355103 
	C343.881348,623.998901 344.196075,624.002991 344.746429,624.022766 
	C344.985779,624.472412 344.989410,624.915100 344.968201,625.689209 
	C344.943329,626.020691 344.505798,626.000000 344.505798,626.000000 
	C344.505798,626.000000 344.084351,626.119385 343.864685,626.122559 
	C343.535950,625.652771 343.426880,625.179810 343.442169,624.355103 
z"/>
<path fill="#494663" opacity="1.000000" stroke="none" 
	d="
M478.298157,919.006897 
	C478.325439,918.589050 478.597290,918.106628 479.157623,917.691528 
	C479.144958,918.153381 478.843842,918.547852 478.298157,919.006897 
z"/>
<path fill="#494663" opacity="1.000000" stroke="none" 
	d="
M474.831177,922.279175 
	C474.700348,922.311218 474.573639,921.904541 474.573639,921.904541 
	C474.573639,921.904541 474.893097,921.624390 475.083130,921.723267 
	C475.230988,922.008850 475.127289,922.150513 474.831177,922.279175 
z"/>
<path fill="#494663" opacity="1.000000" stroke="none" 
	d="
M473.741455,923.311401 
	C473.398224,922.972107 473.505249,922.711365 474.105011,922.613647 
	C474.316742,922.950073 474.181396,923.154541 473.741455,923.311401 
z"/>
<path fill="#494663" opacity="1.000000" stroke="none" 
	d="
M343.971039,898.181885 
	C344.071167,898.123779 344.246948,898.412842 344.194946,898.573730 
	C343.873260,898.679749 343.782593,898.514893 343.971039,898.181885 
z"/>
<path fill="#494663" opacity="1.000000" stroke="none" 
	d="
M472.645966,924.278564 
	C472.565674,924.047241 472.700195,923.762573 473.091034,923.496765 
	C473.300995,923.831604 473.138824,924.068115 472.645966,924.278564 
z"/>
<path fill="#FBFBFC" opacity="1.000000" stroke="none" 
	d="
M559.345093,251.873749 
	C559.211060,251.972824 559.050842,251.504028 559.096375,251.260529 
	C559.528015,251.175125 559.640442,251.427673 559.345093,251.873749 
z"/>
<path fill="#FBFBFC" opacity="1.000000" stroke="none" 
	d="
M855.144958,211.977966 
	C862.058228,235.151443 855.292786,258.011108 837.554688,272.200012 
	C820.332153,285.976532 795.707642,288.322937 777.016174,277.968658 
	C755.295715,265.936432 744.436707,241.061203 750.030579,216.151230 
	C755.204468,193.111084 775.863342,175.739227 799.960693,174.165176 
	C823.807190,172.607529 846.694824,188.165558 855.144958,211.977966 
z"/>
<path fill="#494663" opacity="1.000000" stroke="none" 
	d="
M344.093323,501.084351 
	C344.213776,500.964661 344.371124,501.032593 344.765503,501.200562 
	C344.711761,501.291077 344.421021,501.281494 344.093323,501.084351 
z"/>
<path fill="#FCFCFC" opacity="1.000000" stroke="none" 
	d="
M542.994507,280.994080 
	C543.230103,282.366791 543.833740,283.801544 543.628601,285.109406 
	C543.305603,287.168243 542.438416,289.141724 541.911011,290.806122 
	C539.017822,291.903961 535.916748,293.080688 532.815613,294.257416 
	C532.842102,294.929535 532.868652,295.601654 532.895142,296.273773 
	C537.156982,296.558105 542.677917,293.407288 544.284058,300.541534 
	C545.403259,299.326904 545.841492,298.893738 546.231140,298.420563 
	C547.386658,297.017212 548.523071,295.598114 549.666992,294.185211 
	C550.753967,296.284821 552.480835,298.290344 552.806152,300.502014 
	C553.729065,306.776276 554.425476,313.127960 554.550232,319.462189 
	C554.659363,324.998627 553.882019,330.553528 553.476074,336.098785 
	C553.203613,339.821442 552.893860,343.541321 552.604248,347.262726 
	C551.993103,355.115509 554.771423,362.695068 550.760986,371.005646 
	C547.330383,378.114777 547.985352,387.236053 547.101929,395.496094 
	C546.943909,396.973206 548.095398,398.590332 548.642273,400.142822 
	C549.224792,400.033264 549.807312,399.923737 550.389893,399.814178 
	C550.757629,397.404144 551.125427,394.994110 551.624817,391.721619 
	C555.071045,395.915527 554.203247,399.732727 553.291748,403.503143 
	C551.445190,411.141235 550.703308,418.725342 553.994324,426.560181 
	C527.444153,426.981293 500.888702,427.045044 474.333252,427.092194 
	C466.862976,427.105438 459.392639,427.069946 451.477112,426.578552 
	C452.107849,425.399261 453.127869,424.582947 454.274048,424.026703 
	C455.669281,423.349701 457.170715,422.891541 458.626190,422.338715 
	C458.493561,422.080353 458.360901,421.821960 458.228271,421.563599 
	C448.661377,421.563599 439.094482,421.563599 430.102509,421.563599 
	C431.152985,423.493073 432.076172,425.188843 432.999390,426.884583 
	C432.552521,426.944794 432.105621,427.005035 431.231445,426.599365 
	C427.407928,424.696228 424.023132,423.409271 421.000061,426.879089 
	C420.246765,426.936829 419.493500,426.994568 418.367889,426.569305 
	C416.391998,424.573303 414.788452,423.060303 412.973541,421.347931 
	C415.965820,418.618622 415.829987,415.022491 413.008179,411.335510 
	C417.838593,406.390686 422.668976,401.445892 428.001221,396.599731 
	C432.274078,399.916504 436.329834,402.305939 441.770660,401.677185 
	C441.303284,397.697845 440.895752,394.228363 440.417114,390.153137 
	C438.198120,390.925262 436.604675,391.602020 434.943634,391.987335 
	C434.406036,392.112030 433.691101,391.472290 433.057281,391.182251 
	C433.911774,390.227417 434.766235,389.272583 436.067261,388.081848 
	C436.710846,387.695953 436.858398,387.507233 436.956482,387.279846 
	C437.950867,386.234894 438.945251,385.189972 440.606079,384.030334 
	C443.876984,383.861572 445.790161,383.288727 444.165161,380.060791 
	C446.165192,377.991425 448.165253,375.922058 450.613525,374.020355 
	C452.631439,374.937286 454.139862,375.893555 455.787048,376.380615 
	C457.625977,376.924408 459.726044,376.706909 461.474396,377.411499 
	C465.821747,379.163391 467.612091,378.390930 469.051910,374.074768 
	C469.486298,372.772644 470.829987,371.785522 471.707153,370.616577 
	C472.831787,369.117859 474.473419,367.714905 474.870392,366.029938 
	C475.485596,363.418610 475.654938,361.228516 479.263580,361.409637 
	C480.118378,361.452515 481.596436,359.601135 481.849335,358.420135 
	C482.158203,356.977997 481.477509,355.323944 481.196564,353.587402 
	C484.229034,353.587402 486.916260,353.587402 490.178558,353.587402 
	C489.415710,350.202789 488.768646,347.331940 487.920563,343.569275 
	C490.877869,344.522491 492.724121,345.165253 494.598724,345.710602 
	C497.392975,346.523529 499.276398,345.705078 500.604645,342.906281 
	C501.690643,340.617920 503.422363,338.635956 504.867798,336.518127 
	C505.805481,336.561432 505.977325,336.050140 505.894043,335.584473 
	C504.773651,329.317749 504.760071,329.464203 511.058777,329.669403 
	C511.999847,329.700043 513.960510,327.466095 513.802002,326.571777 
	C513.388062,324.235962 512.609070,321.364136 510.926147,320.041229 
	C509.546112,318.956482 506.657043,319.791504 504.436890,319.775513 
	C509.756683,314.281891 515.076477,308.788269 520.966187,303.436646 
	C523.689331,303.033600 525.999207,302.773102 527.881897,301.736664 
	C528.333435,301.488098 527.364746,298.659607 527.049255,297.017670 
	C528.169800,295.760956 529.290283,294.504211 530.924927,293.011169 
	C531.712708,292.568817 531.894958,292.300690 531.985840,291.970428 
	C531.985840,291.970428 532.000977,292.001221 532.210693,291.889801 
	C532.701721,291.580170 532.893494,291.316742 532.995728,290.988098 
	C533.492065,290.401733 533.988464,289.815369 534.968872,289.002258 
	C535.719543,288.575134 535.901428,288.315430 535.998657,287.996368 
	C536.167603,287.716003 536.336548,287.435669 536.967773,286.965515 
	C537.708008,286.571014 537.893311,286.302368 537.985840,285.969788 
	C537.985840,285.969788 538.002014,286.000916 538.212036,285.886658 
	C538.608276,285.501862 538.794434,285.231384 538.980591,284.960876 
	C538.980591,284.960876 539.000732,284.999969 539.208801,284.885529 
	C539.606079,284.501495 539.795349,284.231873 539.984558,283.962280 
	C540.154236,283.682098 540.323914,283.401917 540.962524,282.948181 
	C541.709045,282.569550 541.893982,282.300690 541.986206,281.968018 
	C541.986206,281.968018 542.001038,282.001312 542.209961,281.890289 
	C542.701233,281.581207 542.892273,281.317017 542.992004,280.986755 
	C542.992004,280.986755 542.999939,280.999176 542.994507,280.994080 
M447.725189,382.106567 
	C447.817627,382.071503 447.910034,382.036469 448.332397,381.821564 
	C448.222412,381.547180 448.112427,381.272797 447.893738,380.725922 
	C447.809174,380.677246 447.724640,380.628571 447.640076,380.579895 
	C447.759247,380.720734 447.878418,380.861572 447.998444,381.499969 
	C447.998444,381.499969 447.997559,381.997559 447.725189,382.106567 
M527.867737,313.789520 
	C528.499268,312.807251 529.130859,311.824951 529.762390,310.842651 
	C527.457825,309.893555 525.153198,308.944427 524.215759,308.558350 
	C524.864929,309.634308 526.027039,311.560486 527.867737,313.789520 
M455.494476,381.043152 
	C452.659332,379.429932 452.608704,381.861359 453.188416,383.105194 
	C453.812744,384.444855 455.545898,385.267761 456.795288,386.316101 
	C457.257233,385.841644 457.719208,385.367218 458.181152,384.892792 
	C457.464813,383.776642 456.748505,382.660492 455.494476,381.043152 
M521.030518,321.750549 
	C522.892700,318.148956 520.358521,317.760620 517.717590,317.061127 
	C516.582764,320.008514 517.075256,321.706085 521.030518,321.750549 
M446.312927,391.326385 
	C447.215210,391.635071 448.117523,391.943756 449.019806,392.252441 
	C449.018890,391.411530 449.018005,390.570587 449.017090,389.729675 
	C448.115875,390.039154 447.214661,390.348663 446.312927,391.326385 
M422.432617,422.358246 
	C421.554657,421.973328 420.676666,421.588379 419.798706,421.203461 
	C419.836151,422.427246 420.162537,422.779480 420.547699,422.863953 
	C420.989014,422.960785 421.482452,422.819977 422.432617,422.358246 
M544.687683,304.519562 
	C545.024658,303.975891 545.361694,303.432251 545.698669,302.888580 
	C545.425842,302.754547 545.152954,302.620514 544.880127,302.486481 
	C544.676025,303.018921 544.471924,303.551361 544.687683,304.519562 
M520.562256,311.293640 
	C520.292236,311.010590 520.022278,310.727539 519.752258,310.444458 
	C519.635132,310.556366 519.410034,310.759430 519.416443,310.767059 
	C519.668457,311.065582 519.941528,311.346313 520.562256,311.293640 
M539.636353,287.475281 
	C539.843933,287.528992 540.051453,287.582672 540.259033,287.636383 
	C540.125671,287.504730 539.992310,287.373047 539.636353,287.475281 
z"/>
<path fill="#FBFBFC" opacity="1.000000" stroke="none" 
	d="
M504.162415,319.924500 
	C506.657043,319.791504 509.546112,318.956482 510.926147,320.041229 
	C512.609070,321.364136 513.388062,324.235962 513.802002,326.571777 
	C513.960510,327.466095 511.999847,329.700043 511.058777,329.669403 
	C504.760071,329.464203 504.773651,329.317749 505.894043,335.584473 
	C505.977325,336.050140 505.805481,336.561432 504.867798,336.518127 
	C503.422363,338.635956 501.690643,340.617920 500.604645,342.906281 
	C499.276398,345.705078 497.392975,346.523529 494.598724,345.710602 
	C492.724121,345.165253 490.877869,344.522491 487.920563,343.569275 
	C488.768646,347.331940 489.415710,350.202789 490.178558,353.587402 
	C486.916260,353.587402 484.229034,353.587402 481.196564,353.587402 
	C481.477509,355.323944 482.158203,356.977997 481.849335,358.420135 
	C481.596436,359.601135 480.118378,361.452515 479.263580,361.409637 
	C475.654938,361.228516 475.485596,363.418610 474.870392,366.029938 
	C474.473419,367.714905 472.831787,369.117859 471.707153,370.616577 
	C470.829987,371.785522 469.486298,372.772644 469.051910,374.074768 
	C467.612091,378.390930 465.821747,379.163391 461.474396,377.411499 
	C459.726044,376.706909 457.625977,376.924408 455.787048,376.380615 
	C454.139862,375.893555 452.631439,374.937286 450.900330,373.838928 
	C468.455231,355.684357 486.171600,337.878906 504.162415,319.924500 
z"/>
<path fill="#FBFBFC" opacity="1.000000" stroke="none" 
	d="
M412.716553,411.468842 
	C415.829987,415.022491 415.965820,418.618622 412.973541,421.347931 
	C414.788452,423.060303 416.391998,424.573303 417.998138,426.481140 
	C407.315094,426.938782 396.629486,427.001556 385.481323,426.990997 
	C386.050964,426.273529 387.005768,425.393890 388.128418,425.025055 
	C393.673767,423.203125 399.552094,422.104218 404.729584,419.562042 
	C407.846161,418.031799 409.895844,414.328796 412.716553,411.468842 
z"/>
<path fill="#FBFBFC" opacity="1.000000" stroke="none" 
	d="
M432.765442,391.319122 
	C433.691101,391.472290 434.406036,392.112030 434.943634,391.987335 
	C436.604675,391.602020 438.198120,390.925262 440.417114,390.153137 
	C440.895752,394.228363 441.303284,397.697845 441.770660,401.677185 
	C436.329834,402.305939 432.274078,399.916504 428.292908,396.456055 
	C429.546326,394.627808 431.009949,393.041901 432.765442,391.319122 
z"/>
<path fill="#FBFBFC" opacity="1.000000" stroke="none" 
	d="
M526.743225,297.150116 
	C527.364746,298.659607 528.333435,301.488098 527.881897,301.736664 
	C525.999207,302.773102 523.689331,303.033600 521.274963,303.305359 
	C522.821655,301.115570 524.629456,299.199066 526.743225,297.150116 
z"/>
<path fill="#FBFBFC" opacity="1.000000" stroke="none" 
	d="
M443.866089,380.204773 
	C445.790161,383.288727 443.876984,383.861572 440.872925,383.878052 
	C441.504578,382.676544 442.535797,381.512604 443.866089,380.204773 
z"/>
<path fill="#FCFCFC" opacity="1.000000" stroke="none" 
	d="
M545.713684,277.988312 
	C545.768982,278.185852 545.567444,278.471741 545.119263,278.860504 
	C545.067383,278.667816 545.262146,278.372253 545.713684,277.988312 
z"/>
<path fill="#FBFBFC" opacity="1.000000" stroke="none" 
	d="
M532.746948,291.059296 
	C532.893494,291.316742 532.701721,291.580170 532.195190,291.882446 
	C532.146057,291.701172 532.322083,291.415833 532.746948,291.059296 
z"/>
<path fill="#FBFBFC" opacity="1.000000" stroke="none" 
	d="
M531.740662,292.050415 
	C531.894958,292.300690 531.712708,292.568817 531.219177,292.886688 
	C531.164673,292.709167 531.330078,292.419769 531.740662,292.050415 
z"/>
<path fill="#FBFBFC" opacity="1.000000" stroke="none" 
	d="
M542.744385,281.059875 
	C542.892273,281.317017 542.701233,281.581207 542.193237,281.882965 
	C542.143982,281.702118 542.320374,281.417542 542.744385,281.059875 
z"/>
<path fill="#FBFBFC" opacity="1.000000" stroke="none" 
	d="
M541.743469,282.049957 
	C541.893982,282.300690 541.709045,282.569550 541.208374,282.883881 
	C541.157166,282.706085 541.328979,282.418976 541.743469,282.049957 
z"/>
<path fill="#FBFBFC" opacity="1.000000" stroke="none" 
	d="
M537.742126,286.053284 
	C537.893311,286.302368 537.708008,286.571014 537.207031,286.885254 
	C537.155518,286.708801 537.326965,286.422791 537.742126,286.053284 
z"/>
<path fill="#FBFBFC" opacity="1.000000" stroke="none" 
	d="
M535.757935,288.073181 
	C535.901428,288.315430 535.719543,288.575134 535.238281,288.884888 
	C535.188110,288.712830 535.352661,288.431396 535.757935,288.073181 
z"/>
<path fill="#FBFBFC" opacity="1.000000" stroke="none" 
	d="
M539.735962,284.039734 
	C539.795349,284.231873 539.606079,284.501495 539.188904,284.876282 
	C539.136353,284.693359 539.311829,284.405243 539.735962,284.039734 
z"/>
<path fill="#FBFBFC" opacity="1.000000" stroke="none" 
	d="
M436.758545,387.313385 
	C436.858398,387.507233 436.710846,387.695953 436.358826,387.940308 
	C436.196930,387.740112 436.315826,387.510864 436.758545,387.313385 
z"/>
<path fill="#FBFBFC" opacity="1.000000" stroke="none" 
	d="
M538.735901,285.044861 
	C538.794434,285.231384 538.608276,285.501862 538.196045,285.879578 
	C538.143677,285.700806 538.317444,285.414825 538.735901,285.044861 
z"/>
<path fill="#FBFBFC" opacity="1.000000" stroke="none" 
	d="
M433.459778,426.974854 
	C432.076172,425.188843 431.152985,423.493073 430.102509,421.563599 
	C439.094482,421.563599 448.661377,421.563599 458.228271,421.563599 
	C458.360901,421.821960 458.493561,422.080353 458.626190,422.338715 
	C457.170715,422.891541 455.669281,423.349701 454.274048,424.026703 
	C453.127869,424.582947 452.107849,425.399261 451.016327,426.487366 
	C445.307220,426.937988 439.613708,427.001526 433.459778,426.974854 
z"/>
<path fill="#FCFCFC" opacity="1.000000" stroke="none" 
	d="
M555.420105,427.025879 
	C555.687927,423.095123 556.711243,419.287170 556.961426,415.429108 
	C557.300049,410.205719 557.045654,404.943878 557.045654,399.698517 
	C557.592468,399.686523 558.139221,399.674530 558.686035,399.662537 
	C558.898499,406.553375 559.110901,413.444183 559.586731,420.651367 
	C559.919128,422.704132 559.988220,424.440552 560.055664,426.612610 
	C558.646362,427.074310 557.238770,427.100342 555.420105,427.025879 
z"/>
<path fill="#FBFBFC" opacity="1.000000" stroke="none" 
	d="
M421.446991,426.968262 
	C424.023132,423.409271 427.407928,424.696228 430.901855,426.511353 
	C427.964355,426.945282 424.929138,427.001373 421.446991,426.968262 
z"/>
<path fill="#FCFCFC" opacity="1.000000" stroke="none" 
	d="
M559.838135,384.570740 
	C558.746399,384.546539 556.926331,384.137543 556.870544,383.558502 
	C556.460999,379.310150 556.230652,375.026215 556.267273,370.756287 
	C556.424805,352.363159 556.693298,333.970978 556.921448,315.578430 
	C552.263245,307.326752 558.960144,299.143860 557.149109,290.878021 
	C557.049194,290.421936 558.332764,289.662750 559.372314,289.022125 
	C559.823669,320.702148 559.875122,352.404663 559.838135,384.570740 
z"/>
<path fill="#FCFCFC" opacity="1.000000" stroke="none" 
	d="
M558.582336,282.856567 
	C558.735107,284.232910 558.665894,285.341736 558.596680,286.450592 
	C558.062683,286.343567 557.528625,286.236542 556.994629,286.129486 
	C557.449829,284.949341 557.905090,283.769196 558.582336,282.856567 
z"/>
<path fill="#FBFBFC" opacity="1.000000" stroke="none" 
	d="
M527.528442,313.638092 
	C526.027039,311.560486 524.864929,309.634308 524.215759,308.558350 
	C525.153198,308.944427 527.457825,309.893555 529.762390,310.842651 
	C529.130859,311.824951 528.499268,312.807251 527.528442,313.638092 
z"/>
<path fill="#FBFBFC" opacity="1.000000" stroke="none" 
	d="
M455.763306,381.293762 
	C456.748505,382.660492 457.464813,383.776642 458.181152,384.892792 
	C457.719208,385.367218 457.257233,385.841644 456.795288,386.316101 
	C455.545898,385.267761 453.812744,384.444855 453.188416,383.105194 
	C452.608704,381.861359 452.659332,379.429932 455.763306,381.293762 
z"/>
<path fill="#FBFBFC" opacity="1.000000" stroke="none" 
	d="
M520.663513,321.837952 
	C517.075256,321.706085 516.582764,320.008514 517.717590,317.061127 
	C520.358521,317.760620 522.892700,318.148956 520.663513,321.837952 
z"/>
<path fill="#FBFBFC" opacity="1.000000" stroke="none" 
	d="
M446.313171,390.992249 
	C447.214661,390.348663 448.115875,390.039154 449.017090,389.729675 
	C449.018005,390.570587 449.018890,391.411530 449.019806,392.252441 
	C448.117523,391.943756 447.215210,391.635071 446.313171,390.992249 
z"/>
<path fill="#FBFBFC" opacity="1.000000" stroke="none" 
	d="
M422.192932,422.570312 
	C421.482452,422.819977 420.989014,422.960785 420.547699,422.863953 
	C420.162537,422.779480 419.836151,422.427246 419.798706,421.203461 
	C420.676666,421.588379 421.554657,421.973328 422.192932,422.570312 
z"/>
<path fill="#FBFBFC" opacity="1.000000" stroke="none" 
	d="
M544.477722,304.301666 
	C544.471924,303.551361 544.676025,303.018921 544.880127,302.486481 
	C545.152954,302.620514 545.425842,302.754547 545.698730,302.888611 
	C545.361694,303.432251 545.024658,303.975891 544.477722,304.301666 
z"/>
<path fill="#FBFBFC" opacity="1.000000" stroke="none" 
	d="
M520.387085,311.461487 
	C519.941528,311.346313 519.668457,311.065582 519.416443,310.767059 
	C519.410034,310.759430 519.635132,310.556366 519.752258,310.444458 
	C520.022278,310.727539 520.292236,311.010590 520.387085,311.461487 
z"/>
<path fill="#FBFBFC" opacity="1.000000" stroke="none" 
	d="
M539.747681,287.358337 
	C539.992310,287.373047 540.125671,287.504730 540.259033,287.636383 
	C540.051453,287.582672 539.843933,287.528992 539.747681,287.358337 
z"/>
<path fill="#FBFBFC" opacity="1.000000" stroke="none" 
	d="
M447.997559,381.002441 
	C447.878418,380.861572 447.759247,380.720734 447.640076,380.579895 
	C447.724640,380.628571 447.809174,380.677246 447.946869,380.862976 
	C448.000000,381.000000 447.997559,381.002441 447.997559,381.002441 
z"/>
<path fill="#FBFBFC" opacity="1.000000" stroke="none" 
	d="
M448.002441,382.001404 
	C447.910034,382.036469 447.817627,382.071503 447.862610,382.053284 
	C448.000000,382.000000 448.002441,382.001404 448.002441,382.001404 
z"/>
<path fill="#FBFBFC" opacity="1.000000" stroke="none" 
	d="
M447.998779,381.998779 
	C447.997559,381.997559 447.998444,381.499969 447.997986,381.251221 
	C447.997559,381.002441 448.000000,381.000000 448.001221,380.999207 
	C448.112427,381.272797 448.222412,381.547180 448.167419,381.911499 
	C448.002441,382.001404 448.000000,382.000000 447.998779,381.998779 
z"/>
</svg>